<?xml version="1.0" standalone="no"?>
<!DOCTYPE svg PUBLIC "-//W3C//DTD SVG 20010904//EN"
 "http://www.w3.org/TR/2001/REC-SVG-20010904/DTD/svg10.dtd">
<svg version="1.0" xmlns="http://www.w3.org/2000/svg"
 width="1920.000000pt" height="1080.000000pt" viewBox="0 0 1920.000000 1080.000000"
 preserveAspectRatio="xMidYMid meet">
<metadata>
Created by potrace 1.16, written by Peter Selinger 2001-2019
</metadata>
<g transform="translate(0.000000,1080.000000) scale(0.100000,-0.100000)"
fill="#000000" stroke="none">
<path id="cir1" d="M7405 10124 c-361 -26 -685 -134 -973 -324 -345 -226 -620 -571 -765
-960 -138 -369 -159 -782 -60 -1175 87 -348 284 -682 552 -937 468 -446 1115
-628 1766 -497 275 55 564 192 810 384 108 84 295 280 377 396 495 696 488
1631 -17 2314 -267 361 -648 621 -1076 734 -184 49 -451 77 -614 65z"/>
<path d="M8915 1799 c-282 -42 -508 -248 -581 -529 -22 -85 -22 -235 -1 -320
23 -89 87 -215 143 -284 86 -104 232 -196 369 -231 76 -19 250 -19 332 0 198
47 369 185 458 370 57 120 70 177 69 315 0 95 -5 128 -26 192 -79 239 -262
413 -495 472 -78 20 -195 26 -268 15z"/>
</g>
</svg>
